# xmcd
#
# Track frame offsets: 
#        150
#        16242
#        27554
#        38753
#        60513
#        74529
#        91674
#        108118
#        115665
#        132860
#        150765
#
# Disc length: 2240 seconds
#
# Revision: 0
# Processed by: cddbd v1.5.2PL0 Copyright (c) Steve Scherf et al.
# Submitted via: ExactAudioCopy v0.99pb4
#
DISCID=7a08be0b
DTITLE=The Florida Boys - The Ultimate Collection
DYEAR=2008
DGENRE=Gospel
TTITLE0=When He Was on the Cross, I Was on His Mind 
TTITLE1=I'm Standing on the Solid Rock 
TTITLE2=Stand by Me 
TTITLE3=Scars in the Hands of Jesus
TTITLE4=When They Ring Those Golden Bells
TTITLE5=The Cross in the Middle
TTITLE6=I've Got a Feeling 
TTITLE7=Star-Spangled Banner
TTITLE8=I Lean on You Lord 
TTITLE9=The Little Boy from the Carpenter's Shop 
TTITLE10=How Great Thou Art
EXTD=
EXTT0=
EXTT1=
EXTT2=
EXTT3=
EXTT4=
EXTT5=
EXTT6=
EXTT7=
EXTT8=
EXTT9=
EXTT10=
PLAYORDER=
